<svg width="15" height="15" viewBox="0 0 15 15" fill="none" xmlns="http://www.w3.org/2000/svg">
<path d="M7.5 7.125C6.7896 7.125 6.10829 6.92746 5.60596 6.57583C5.10363 6.22419 4.82143 5.74728 4.82143 5.25C4.82143 4.75272 5.10363 4.27581 5.60596 3.92417C6.10829 3.57254 6.7896 3.375 7.5 3.375C8.2104 3.375 8.89171 3.57254 9.39404 3.92417C9.89637 4.27581 10.1786 4.75272 10.1786 5.25C10.1786 5.49623 10.1093 5.74005 9.97468 5.96753C9.84007 6.19502 9.64276 6.40172 9.39404 6.57583C9.14531 6.74994 8.85002 6.88805 8.52505 6.98227C8.20007 7.0765 7.85176 7.125 7.5 7.125ZM7.5 0C5.51088 0 3.60322 0.553123 2.1967 1.53769C0.790176 2.52226 0 3.85761 0 5.25C0 9.1875 7.5 15 7.5 15C7.5 15 15 9.1875 15 5.25C15 3.85761 14.2098 2.52226 12.8033 1.53769C11.3968 0.553123 9.48912 0 7.5 0Z" fill="#87A7C6"/>
</svg>
