<svg width="15" height="15" viewBox="0 0 15 15" fill="none" xmlns="http://www.w3.org/2000/svg">
<path d="M13.5303 10.229L11.4094 9.98682C11.16 9.95753 10.9072 9.98514 10.67 10.0676C10.4328 10.15 10.2174 10.2851 10.0399 10.4628L8.50351 11.9992C6.13323 10.7934 4.20658 8.86673 3.00077 6.49645L4.54554 4.95166C4.9046 4.5926 5.07995 4.09159 5.0215 3.58223L4.77935 1.47799C4.73218 1.07057 4.53675 0.694757 4.23029 0.422182C3.92384 0.149607 3.5278 -0.000668074 3.11767 2.2328e-06H1.6731C0.72953 2.2328e-06 -0.0553836 0.784919 0.00306741 1.72849C0.445625 8.85955 6.14877 14.5544 13.2714 14.9969C14.215 15.0554 14.9999 14.2705 14.9999 13.3269V11.8823C15.0083 11.0389 14.3737 10.3292 13.5303 10.229Z" fill="#87A7C6"/>
</svg>
