<svg width="32" height="32" viewBox="0 0 32 32" fill="none" xmlns="http://www.w3.org/2000/svg">
<g clip-path="url(#clip0_7824_492)">
<path d="M15.454 13.156C14.7328 13.156 14.0528 13.156 13.3934 13.1041C12.7341 13.0522 12.1674 13.0596 11.6317 13.0596C11.5802 13.0596 11.5596 13.1189 11.5596 13.245C11.5596 13.371 11.5596 13.423 11.6317 13.423C12.5177 13.423 13.0741 13.5639 13.3007 13.8308C13.5687 14.3721 13.6011 14.9594 13.3934 15.5143L13.0844 16.9975C14.0941 16.286 14.9177 15.4494 15.5158 14.5279C15.8226 14.0661 16.0876 13.5905 16.3091 13.1041C16.0103 13.1411 15.7424 13.156 15.454 13.156Z" fill="#9BD4B9"/>
<path d="M31.9384 9.06232C31.4335 9.06232 30.836 9.06232 30.1663 9.10681C29.4966 9.15131 28.796 9.15131 28.1058 9.15131C27.4155 9.15131 26.6943 9.15131 26.0452 9.10681C25.3962 9.06232 24.7986 9.06232 24.2938 9.06232C24.2217 9.06232 24.1805 9.12164 24.1805 9.2403C24.1805 9.35896 24.1805 9.4257 24.2938 9.4257C25.1695 9.4257 25.7156 9.57402 25.9113 9.86324C26.128 10.4221 26.1457 11.0112 25.9628 11.5763L24.2938 19.8081H16.0517L16.6492 16.3152L16.5256 16.4041C15.4446 17.1942 14.1874 17.8484 12.8064 18.3397L10.5192 29.5453C10.4496 30.0011 10.3043 30.4493 10.0865 30.8802C10.0229 31.0122 9.92378 31.1339 9.79471 31.2382C9.66564 31.3426 9.5092 31.4276 9.33436 31.4883C8.87766 31.6018 8.39527 31.6521 7.9126 31.6366C7.84048 31.6366 7.80957 31.6959 7.80957 31.822C7.80957 31.9481 7.80957 32 7.9126 32C8.41743 32 9.00468 32 9.65374 32C10.3028 32 10.9931 32 11.7143 32C12.4355 32 13.1979 32 13.8675 32C14.5372 32 15.1347 32 15.6499 32C15.722 32 15.7529 31.9406 15.7529 31.822C15.7529 31.7033 15.7529 31.6366 15.6499 31.6366C14.7639 31.6366 14.2178 31.5105 13.9912 31.2435C13.7485 30.6927 13.7306 30.1032 13.9396 29.5453L15.7632 20.6461H24.0671L23.0369 25.5406C22.9648 25.9954 22.8231 26.4431 22.6145 26.8755C22.5571 27.0045 22.4647 27.1241 22.3427 27.2272C22.2207 27.3303 22.0714 27.4149 21.9036 27.4762C21.4389 27.5981 20.9448 27.6511 20.4509 27.632C20.4509 27.632 20.3891 27.6913 20.3891 27.8099C20.3891 27.9286 20.3891 27.9953 20.4509 27.9953C20.9866 27.9953 21.5945 27.9953 22.2642 27.9953C22.9338 27.9953 23.655 27.9953 24.3968 27.9953C25.1386 27.9953 25.8495 27.9953 26.5192 27.9953C27.1888 27.9953 27.7555 27.9953 28.1985 27.9953C28.2706 27.9953 28.3015 27.936 28.3015 27.8099C28.3015 27.6839 28.3015 27.632 28.1985 27.632C27.3331 27.632 26.787 27.4985 26.5604 27.2389C26.293 26.6927 26.2571 26.1016 26.4573 25.5406L29.3112 11.5096C29.4089 11.0658 29.5606 10.6291 29.7645 10.2044C29.8872 9.93642 30.1494 9.71313 30.496 9.58144C30.9552 9.45434 31.4475 9.40118 31.9384 9.4257C31.9899 9.4257 32.0105 9.36637 32.0105 9.2403C32.0105 9.11423 31.9384 9.06232 31.9384 9.06232Z" fill="#9BD4B9"/>
<path d="M16.6491 16.3152C17.8383 15.4202 18.8256 14.3968 19.575 13.282C20.4379 11.9983 21.0117 10.624 21.275 9.21063C21.6637 7.60634 21.5118 5.95832 20.8319 4.40507C20.232 3.09874 19.0701 1.96372 17.5145 1.16428C15.8309 0.357447 13.8386 -0.0497011 11.8171 -2.9384e-05C11.1289 -0.00177511 10.4411 0.0229802 9.7566 0.0741305C9.07201 0.124566 8.38424 0.14932 7.69607 0.14829C7.0161 0.14829 6.29491 0.133458 5.63554 0.103794C4.97618 0.0741305 4.37862 0.0592985 3.84288 0.0592985C3.84288 0.0592985 3.77077 0.118626 3.77077 0.244698C3.77077 0.37077 3.77077 0.422682 3.84288 0.422682H5.27495V0.496842C5.74993 2.0102 6.09401 3.54331 6.30522 5.08734C6.30522 5.28757 6.30522 5.51005 6.36703 5.73253C6.11938 5.09027 5.63943 4.50681 4.97618 4.04169C4.12902 3.55888 3.07924 3.29741 1.99871 3.30009C2.22104 4.09893 2.77418 4.8306 3.58532 5.39881C4.39569 5.8674 5.39982 6.12834 6.43915 6.14041C6.51127 7.06741 6.53187 8.1279 6.43915 9.23288C6.19814 8.52534 5.69212 7.87895 4.97618 7.36405C4.12784 6.8828 3.07884 6.62152 1.99871 6.62245C2.21847 7.42411 2.77184 8.15868 3.58532 8.72859C4.41027 9.19889 5.42812 9.45962 6.48036 9.47019C6.48036 10.2489 6.36703 11.0498 6.2434 11.8211C5.97853 11.2264 5.50684 10.6903 4.87315 10.2637C4.02165 9.78139 2.9689 9.52009 1.88538 9.5221C2.11108 10.3244 2.6634 11.0601 3.47199 11.6357C4.2324 12.0769 5.1653 12.3362 6.14037 12.3773C5.71797 14.5427 4.90406 16.4783 3.41017 17.3237C3.22473 17.4201 1.62782 18.1024 1.40116 18.184L0.226658 18.6289H0.113329C0.0412106 18.6289 0 18.6883 0 18.8143C0 18.9404 0 18.9923 0.113329 18.9923C0.638764 18.9923 1.22601 18.9923 1.86478 18.9923C2.50354 18.9923 3.21442 18.9923 3.97682 18.9923C4.73921 18.9923 5.481 18.9923 6.31552 19.0813C7.15003 19.1703 7.85061 19.1703 8.37605 19.1703C9.83688 19.1635 11.2782 18.9282 12.6001 18.4806C12.6563 18.4555 12.7148 18.4332 12.7753 18.4139C14.158 17.9062 15.4119 17.2343 16.4842 16.4264L16.6491 16.3152ZM13.074 17.0567C12.8409 17.2265 12.5894 17.3827 12.322 17.524C11.1621 18.1867 9.723 18.5451 8.24211 18.5399H5.63554C5.65767 18.4373 5.68864 18.3358 5.72827 18.2359L5.83129 17.828C6.01674 17.0493 6.26401 16.2632 6.51127 15.4994C6.6349 15.1286 6.74823 14.7578 6.87186 14.3647C7.0367 13.727 7.17064 13.0818 7.27366 12.4366C8.27017 12.4048 9.22659 12.145 10.0039 11.695C10.8125 11.1194 11.3648 10.3837 11.5905 9.58143C10.507 9.57941 9.45421 9.84072 8.6027 10.323C8.07215 10.6743 7.65989 11.108 7.3973 11.5912C7.47972 10.8941 7.55184 10.2044 7.59305 9.50727C8.51693 9.45182 9.39467 9.19288 10.1069 8.76567C10.9162 8.19351 11.4689 7.45992 11.6935 6.65953C10.6104 6.65924 9.5584 6.92036 8.70573 7.40113C8.25412 7.7015 7.88688 8.06152 7.62395 8.46162C7.62395 7.72002 7.62395 6.92651 7.62395 6.17008C8.55019 6.11237 9.43032 5.85379 10.1481 5.42848C10.9582 4.85375 11.5108 4.11764 11.7347 3.31492C10.6512 3.3129 9.59844 3.57421 8.74694 4.05652C8.2437 4.38516 7.84334 4.78711 7.57244 5.23566C7.44881 3.58931 7.21185 1.99487 7.0058 0.496842C8.90148 0.548754 11.0135 0.608082 11.508 0.608082C12.7592 0.564708 13.9873 0.861143 14.9491 1.43867C15.8576 2.04204 16.5232 2.81064 16.8757 3.66347C17.3063 4.62338 17.549 5.62176 17.5969 6.62987C17.6556 7.71283 17.5798 8.79741 17.3703 9.87066C17.167 10.9764 16.8221 12.0662 16.34 13.1263C16.1185 13.6127 15.8535 14.0883 15.5467 14.5501C14.9416 15.4872 14.1036 16.3367 13.074 17.0567Z" fill="#7B7F80"/>
</g>
<defs>
<clipPath id="clip0_7824_492">
<rect width="32" height="32" fill="white"/>
</clipPath>
</defs>
</svg>
