<svg width="15" height="15" viewBox="0 0 15 15" fill="none" xmlns="http://www.w3.org/2000/svg">
<path d="M8.27101 0C9.11472 0.00224995 9.54294 0.00674984 9.91268 0.0172496L10.0582 0.0224994C10.2262 0.0284993 10.3919 0.0359991 10.5921 0.0449989C11.3901 0.082498 11.9346 0.208495 12.4123 0.393741C12.9073 0.584236 13.3243 0.84223 13.7412 1.25847C14.1227 1.63326 14.4178 2.0868 14.6059 2.58744C14.7912 3.06518 14.9172 3.60966 14.9547 4.40839C14.9637 4.60789 14.9712 4.77363 14.9772 4.94238L14.9817 5.08788C14.9929 5.45687 14.9974 5.88511 14.9989 6.72884L14.9997 7.28832V8.2708C15.0015 8.81784 14.9957 9.36488 14.9824 9.91176L14.9779 10.0573C14.9719 10.226 14.9644 10.3917 14.9554 10.5912C14.9179 11.39 14.7904 11.9337 14.6059 12.4122C14.4178 12.9128 14.1227 13.3664 13.7412 13.7412C13.3665 14.1227 12.9129 14.4178 12.4123 14.6059C11.9346 14.7911 11.3901 14.9171 10.5921 14.9546L10.0582 14.9771L9.91268 14.9816C9.54294 14.9921 9.11472 14.9974 8.27101 14.9989L7.71154 14.9996H6.72984C6.18256 15.0016 5.63528 14.9958 5.08817 14.9824L4.94268 14.9779C4.76464 14.9711 4.58665 14.9634 4.4087 14.9546C3.61074 14.9171 3.06627 14.7911 2.5878 14.6059C2.08744 14.4177 1.63418 14.1226 1.25961 13.7412C0.877841 13.3665 0.582479 12.9129 0.394157 12.4122C0.208916 11.9345 0.0829224 11.39 0.0454243 10.5912L0.0229254 10.0573L0.0191757 9.91176C0.00535093 9.36489 -0.000899426 8.81785 0.000426576 8.2708V6.72884C-0.00164924 6.1818 0.00385107 5.63476 0.0169258 5.08788L0.0221755 4.94238C0.0281752 4.77363 0.0356748 4.60789 0.0446744 4.40839C0.0821725 3.60966 0.208166 3.06593 0.393407 2.58744C0.582168 2.0866 0.87805 1.63304 1.26036 1.25847C1.63471 0.87714 2.08771 0.582041 2.5878 0.393741C3.06627 0.208495 3.60999 0.082498 4.4087 0.0449989C4.60819 0.0359991 4.77469 0.0284993 4.94268 0.0224994L5.08817 0.0179995C5.63504 0.00467442 6.18206 -0.001076 6.72909 0.000749927L8.27101 0ZM7.50005 3.74991C6.50554 3.74991 5.55176 4.14499 4.84853 4.84823C4.14531 5.55148 3.75024 6.50528 3.75024 7.49982C3.75024 8.49436 4.14531 9.44816 4.84853 10.1514C5.55176 10.8546 6.50554 11.2497 7.50005 11.2497C8.49456 11.2497 9.44834 10.8546 10.1516 10.1514C10.8548 9.44816 11.2499 8.49436 11.2499 7.49982C11.2499 6.50528 10.8548 5.55148 10.1516 4.84823C9.44834 4.14499 8.49456 3.74991 7.50005 3.74991ZM7.50005 5.24987C7.79551 5.24982 8.08808 5.30797 8.36107 5.421C8.63406 5.53402 8.88211 5.69971 9.09107 5.9086C9.30002 6.11749 9.46579 6.3655 9.5789 6.63846C9.69202 6.91141 9.75026 7.20398 9.75031 7.49944C9.75036 7.79491 9.69221 8.08749 9.57919 8.36049C9.46617 8.63348 9.30048 8.88154 9.0916 9.0905C8.88271 9.29947 8.63471 9.46524 8.36176 9.57835C8.08881 9.69147 7.79626 9.74971 7.5008 9.74976C6.90409 9.74976 6.33182 9.51272 5.90989 9.09077C5.48795 8.66882 5.25091 8.09654 5.25091 7.49982C5.25091 6.9031 5.48795 6.33081 5.90989 5.90887C6.33182 5.48692 6.90409 5.24987 7.5008 5.24987M11.4381 2.62494C11.1895 2.62494 10.951 2.72371 10.7752 2.89952C10.5994 3.07533 10.5006 3.31378 10.5006 3.56241C10.5006 3.81105 10.5994 4.0495 10.7752 4.22531C10.951 4.40112 11.1895 4.49989 11.4381 4.49989C11.6867 4.49989 11.9252 4.40112 12.101 4.22531C12.2768 4.0495 12.3756 3.81105 12.3756 3.56241C12.3756 3.31378 12.2768 3.07533 12.101 2.89952C11.9252 2.72371 11.6867 2.62494 11.4381 2.62494Z" fill="#87A7C6"/>
</svg>
